<svg width="1440" height="282" style="overflow: hidden;"><defs id="defs"><clipPath id="_ABSTRACT_RENDERER_ID_445"><rect x="150" y="54" width="1140" height="174"></rect></clipPath></defs><rect x="0" y="0" width="1440" height="282" stroke="none" stroke-width="0" fill="#ffffff"></rect><g><rect x="150" y="54" width="1140" height="174" stroke="none" stroke-width="0" fill-opacity="0" fill="#ffffff"></rect><g clip-path="url(#_ABSTRACT_RENDERER_ID_445)"><g><rect x="150" y="227" width="1140" height="1" stroke="none" stroke-width="0" fill="#cccccc"></rect><rect x="150" y="184" width="1140" height="1" stroke="none" stroke-width="0" fill="#cccccc"></rect><rect x="150" y="141" width="1140" height="1" stroke="none" stroke-width="0" fill="#cccccc"></rect><rect x="150" y="97" width="1140" height="1" stroke="none" stroke-width="0" fill="#cccccc"></rect><rect x="150" y="54" width="1140" height="1" stroke="none" stroke-width="0" fill="#cccccc"></rect></g><g><rect x="150" y="54" width="1" height="174" stroke="none" stroke-width="0" fill="#333333"></rect><rect x="150" y="227" width="1140" height="1" stroke="none" stroke-width="0" fill="#333333"></rect></g><g><path d="M150.5,89.1L213.7777777777778,87.71600000000001L277.05555555555554,85.9168L340.33333333333326,85.9168L403.6111111111111,86.57420000000002L466.8888888888889,86.332L530.1666666666667,86.12440000000001L593.4444444444445,85.8476L656.7222222222222,86.64340000000001L720,87.024L783.2777777777777,100.518L846.5555555555554,135.7754L909.8333333333333,140.7578L973.1111111111111,140.2734L1036.3888888888887,140.827L1099.6666666666665,138.7856L1162.9444444444443,138.232L1226.2222222222222,140.827L1289.5,225.1126" stroke="#3366cc" stroke-width="4" fill-opacity="1" fill="none"></path></g><g><rect x="783.2777777777777" y="54" width="1" height="174" stroke="none" stroke-width="0" fill="#000000"></rect><rect x="1226.2222222222222" y="54" width="1" height="174" stroke="none" stroke-width="0" fill="#000000"></rect></g></g><g></g><g><g><text text-anchor="middle" x="317.79734445296737" y="249.08333333333334" font-family="Arial" font-size="15" stroke="none" stroke-width="0" fill="#444444">100</text></g><g><text text-anchor="middle" x="528.0015722350065" y="249.08333333333334" font-family="Arial" font-size="15" stroke="none" stroke-width="0" fill="#444444">1000</text></g><g><text text-anchor="middle" x="738.2058000170458" y="249.08333333333334" font-family="Arial" font-size="15" stroke="none" stroke-width="0" fill="#444444">10000</text></g><g><text text-anchor="middle" x="948.410027799085" y="249.08333333333334" font-family="Arial" font-size="15" stroke="none" stroke-width="0" fill="#444444">100000</text></g><g><text text-anchor="middle" x="1158.6142555811243" y="249.08333333333334" font-family="Arial" font-size="15" stroke="none" stroke-width="0" fill="#444444">1000000</text></g><g><text text-anchor="end" x="135" y="232.75" font-family="Arial" font-size="15" stroke="none" stroke-width="0" fill="#444444">0</text></g><g><text text-anchor="end" x="135" y="189.5" font-family="Arial" font-size="15" stroke="none" stroke-width="0" fill="#444444">1250</text></g><g><text text-anchor="end" x="135" y="146.25" font-family="Arial" font-size="15" stroke="none" stroke-width="0" fill="#444444">2500</text></g><g><text text-anchor="end" x="135" y="103" font-family="Arial" font-size="15" stroke="none" stroke-width="0" fill="#444444">3750</text></g><g><text text-anchor="end" x="135" y="59.75" font-family="Arial" font-size="15" stroke="none" stroke-width="0" fill="#444444">5000</text></g></g><g><g><g><g><text text-anchor="middle" x="802.2777777777777" y="141" font-family="Arial" font-size="20" transform="rotate(270 802.2777777777777 141)" stroke="#ffffff" stroke-width="3" fill="#222222">L3 Cache</text><text text-anchor="middle" x="802.2777777777777" y="141" font-family="Arial" font-size="20" transform="rotate(270 802.2777777777777 141)" stroke="none" stroke-width="0" fill="#222222">L3 Cache</text></g><path d="M785.2777777777777,183.5L785.2777777777777,98.5L805.2777777777777,98.5L805.2777777777777,183.5Z" stroke="none" stroke-width="0" fill-opacity="0" fill="#ffffff"></path></g></g><g><g><g><text text-anchor="middle" x="1245.2222222222222" y="141" font-family="Arial" font-size="20" transform="rotate(270 1245.2222222222222 141)" stroke="#ffffff" stroke-width="3" fill="#222222">Total RAM</text><text text-anchor="middle" x="1245.2222222222222" y="141" font-family="Arial" font-size="20" transform="rotate(270 1245.2222222222222 141)" stroke="none" stroke-width="0" fill="#222222">Total RAM</text></g><path d="M1228.2222222222222,188L1228.2222222222222,94L1248.2222222222222,94L1248.2222222222222,188Z" stroke="none" stroke-width="0" fill-opacity="0" fill="#ffffff"></path></g></g></g></g><g><g><text text-anchor="middle" x="720" y="271.56666666666666" font-family="Arial" font-size="14" font-style="italic" stroke="none" stroke-width="0" fill="#222222">Vector Size in KB (log scale)</text></g><g><text text-anchor="middle" x="56.4" y="141" font-family="Arial" font-size="14" font-style="italic" transform="rotate(-90 56.4 141)" stroke="none" stroke-width="0" fill="#222222">Integer operations / usec</text></g></g><g></g></svg>