<svg width="945" height="427" style="overflow: hidden;"><defs id="defs"><clipPath id="_ABSTRACT_RENDERER_ID_741"><rect x="148" y="82" width="649" height="264"></rect></clipPath></defs><rect x="0" y="0" width="945" height="427" stroke="none" stroke-width="0" fill="#ffffff"></rect><g><rect x="817" y="82" width="108" height="52" stroke="none" stroke-width="0" fill-opacity="0" fill="#ffffff"></rect><g><rect x="817" y="82" width="108" height="20" stroke="none" stroke-width="0" fill-opacity="0" fill="#ffffff"></rect><g><text text-anchor="start" x="845" y="99" font-family="Arial" font-size="20" stroke="none" stroke-width="0" fill="#222222">C</text></g><rect x="817" y="82" width="20" height="20" stroke="none" stroke-width="0" fill="#3366cc"></rect></g><g><rect x="817" y="114" width="108" height="20" stroke="none" stroke-width="0" fill-opacity="0" fill="#ffffff"></rect><g><text text-anchor="start" x="845" y="131" font-family="Arial" font-size="20" stroke="none" stroke-width="0" fill="#222222"> Numba</text></g><rect x="817" y="114" width="20" height="20" stroke="none" stroke-width="0" fill="#dc3912"></rect></g></g><g><rect x="148" y="82" width="649" height="264" stroke="none" stroke-width="0" fill-opacity="0" fill="#ffffff"></rect><g clip-path="url(#_ABSTRACT_RENDERER_ID_741)"><g><rect x="148" y="324" width="649" height="1" stroke="none" stroke-width="0" fill="#cccccc"></rect><rect x="148" y="290" width="649" height="1" stroke="none" stroke-width="0" fill="#cccccc"></rect><rect x="148" y="255" width="649" height="1" stroke="none" stroke-width="0" fill="#cccccc"></rect><rect x="148" y="220" width="649" height="1" stroke="none" stroke-width="0" fill="#cccccc"></rect><rect x="148" y="186" width="649" height="1" stroke="none" stroke-width="0" fill="#cccccc"></rect><rect x="148" y="151" width="649" height="1" stroke="none" stroke-width="0" fill="#cccccc"></rect><rect x="148" y="117" width="649" height="1" stroke="none" stroke-width="0" fill="#cccccc"></rect><rect x="148" y="82" width="649" height="1" stroke="none" stroke-width="0" fill="#cccccc"></rect></g><g><rect x="148" y="82" width="1" height="264" stroke="none" stroke-width="0" fill="#333333"></rect><rect x="148" y="345" width="649" height="1" stroke="none" stroke-width="0" fill="#333333"></rect></g><g><path d="M148.5,342.831198685359L180.9,338.50766082641394L213.3,332.4139764669871L245.70000000000002,324.7368421052632L278.1,313.5863586164446L310.5,303.9023976685192L342.9,293.67422039350186L375.29999999999995,283.35241992320675L407.7,272.98313674016896L440.1,262.16322554222756L472.5,251.80454985225626L504.90000000000003,240.94799077785248L537.3,227.6729289689883L569.6999999999999,214.53368669643123L602.0999999999999,203.29019742553996L634.5,193.25417683418186L666.9,182.63149574859548L699.3,172.3359664455304L731.7,161.64850587839376L764.1,151.47739745610832L796.5,86.7503639550327" stroke="#3366cc" stroke-width="2" fill-opacity="1" fill="none"></path><path d="M148.5,324.7368421052632L180.9,318.6431577458363L213.3,310.96602338411236L245.70000000000002,301.1623098118711L278.1,291.3847107115946L310.5,281.214544053869L342.9,271.4767086865131L375.29999999999995,261.30030389038654L407.7,251.27433516929653L440.1,241.1371799515595L472.5,230.84742004168297L504.90000000000003,220.4418390902248L537.3,209.71199924132222L569.6999999999999,198.723701638851L602.0999999999999,174.1293559139143L634.5,164.0559439953148L666.9,153.67940784877447L699.3,143.09106709146448L731.7,132.74835576989318L764.1,131.73485303767177L796.5,87.14742089508161" stroke="#dc3912" stroke-width="2" fill-opacity="1" fill="none"></path></g></g><g></g><g><g><text text-anchor="middle" x="191.33047027435055" y="366.9" font-family="Arial" font-size="14" stroke="none" stroke-width="0" fill="#444444">10</text></g><g><text text-anchor="middle" x="298.9609405487011" y="366.9" font-family="Arial" font-size="14" stroke="none" stroke-width="0" fill="#444444">100</text></g><g><text text-anchor="middle" x="406.59141082305166" y="366.9" font-family="Arial" font-size="14" stroke="none" stroke-width="0" fill="#444444">1000</text></g><g><text text-anchor="middle" x="514.2218810974023" y="366.9" font-family="Arial" font-size="14" stroke="none" stroke-width="0" fill="#444444">10000</text></g><g><text text-anchor="middle" x="621.8523513717528" y="366.9" font-family="Arial" font-size="14" stroke="none" stroke-width="0" fill="#444444">100000</text></g><g><text text-anchor="middle" x="729.4828216461033" y="366.9" font-family="Arial" font-size="14" stroke="none" stroke-width="0" fill="#444444">1000000</text></g><g><text text-anchor="end" x="134" y="329.63684210526316" font-family="Arial" font-size="14" stroke="none" stroke-width="0" fill="#444444">10</text></g><g><text text-anchor="end" x="134" y="295.0315789473684" font-family="Arial" font-size="14" stroke="none" stroke-width="0" fill="#444444">100</text></g><g><text text-anchor="end" x="134" y="260.4263157894737" font-family="Arial" font-size="14" stroke="none" stroke-width="0" fill="#444444">1000</text></g><g><text text-anchor="end" x="134" y="225.82105263157894" font-family="Arial" font-size="14" stroke="none" stroke-width="0" fill="#444444">10000</text></g><g><text text-anchor="end" x="134" y="191.21578947368423" font-family="Arial" font-size="14" stroke="none" stroke-width="0" fill="#444444">100000</text></g><g><text text-anchor="end" x="134" y="156.6105263157895" font-family="Arial" font-size="14" stroke="none" stroke-width="0" fill="#444444">1000000</text></g><g><text text-anchor="end" x="134" y="122.00526315789475" font-family="Arial" font-size="14" stroke="none" stroke-width="0" fill="#444444">10000000</text></g><g><text text-anchor="end" x="134" y="87.4" font-family="Arial" font-size="14" stroke="none" stroke-width="0" fill="#444444">100000000</text></g></g></g><g><g><text text-anchor="middle" x="472.5" y="405" font-family="Arial" font-size="20" font-style="italic" stroke="none" stroke-width="0" fill="#222222">Vector Size in KB (log scale)</text></g><g><text text-anchor="middle" x="38" y="214" font-family="Arial" font-size="20" font-style="italic" transform="rotate(-90 38 214)" stroke="none" stroke-width="0" fill="#222222">Execution Time (usec)</text></g></g><g></g></svg>